<?xml version="1.0" encoding="UTF-8"?>
<svg xmlns="http://www.w3.org/2000/svg" id="Layer_1" data-name="Layer 1" viewBox="0 0 990 175">
  <defs>
    <style>.cls-1{fill:#0c4bff;}</style>
  </defs>
  <title>Guru</title>
  <path d="M56.71,106.84c5,7,12.76,11.72,20.18,11.72,6.83,0,11.28-3.11,11.28-8.46,0-4.3-4.3-6.23-11-10.38l-8.31-5.2C60,88.89,54.64,81.91,54.64,69.9c0-17.36,15.87-31.16,35.46-31.16,11.27,0,22.1,5.64,30,15l-14.84,14c-4.9-4.9-9.79-8.46-16-8.46C82.38,59.21,79,62.92,79,67.52c0,4,4.15,5.79,11.87,10.69l8.9,5.48c9.35,5.64,13.06,11.73,13.06,23,0,17.66-14.54,32.05-37.69,32.05-12.31,0-25.22-5.05-35.31-18.55Z"></path>
  <path d="M138.76,40.52h58.75L193.65,60.4H158.34l-3.26,16.92h30L181.19,97.2h-30l-4.16,19.88h36.5L179.7,137H119.47Z"></path>
  <path d="M246.32,40.52c19.28,0,34.12,6.82,34.12,25.52,0,17.95-9.79,28.78-23.29,34L271.54,137H246.61l-11.13-33.24h-9.94L219,137H195.28l19.29-96.44ZM229.4,85H238c12.76,0,19-6.23,19-15.43,0-7.12-5.05-10.39-13.95-10.39h-8.6Z"></path>
  <path d="M288.6,40.52h24.92l1.78,45.1c.3,10.09.6,20.33.6,30.57h.59c4.3-10.24,8.46-20.33,12.76-30.57l19.58-45.1h26.11L325.39,137H296.61Z"></path>
  <path d="M381.91,40.52h58.75L436.81,60.4H401.49l-3.26,16.92h30L424.34,97.2h-30l-4.15,19.88h36.5L422.86,137H362.62Z"></path>
  <path d="M489.47,40.52c19.29,0,34.13,6.82,34.13,25.52,0,17.95-9.79,28.78-23.3,34L514.69,137H489.77l-11.13-33.24H468.7L462.17,137H438.43l19.29-96.44ZM472.56,85h8.6c12.76,0,19-6.23,19-15.43,0-7.12-5-10.39-13.94-10.39H477.6Z"></path>
  <path d="M536.8,106.84c5,7,12.75,11.72,20.17,11.72,6.83,0,11.28-3.11,11.28-8.46,0-4.3-4.3-6.23-11-10.38L549,94.52c-8.9-5.63-14.24-12.61-14.24-24.62,0-17.36,15.87-31.16,35.46-31.16,11.27,0,22.1,5.64,30,15l-14.84,14c-4.89-4.9-9.79-8.46-16-8.46-6.83,0-10.24,3.71-10.24,8.31,0,4,4.16,5.79,11.87,10.69l8.9,5.48c9.35,5.64,13.06,11.73,13.06,23,0,17.66-14.54,32.05-37.69,32.05-12.31,0-25.22-5.05-35.31-18.55Z"></path>
  <path class="cls-1" d="M660.62,38.74c13,0,22.69,5.64,28.44,15.73L672.72,66.93c-3.63-5.34-7.57-7.72-13.32-7.72-15.74,0-28.45,16.32-28.45,37.1,0,13.94,5.45,22.25,19.37,22.25a16.55,16.55,0,0,0,8.48-2.37l3.63-16H647.9l3.63-19.28h35.72l-9.38,47.77a54.51,54.51,0,0,1-31.78,10.09c-24.52,0-40-14.84-40-40.95C606.14,63.37,630.05,38.74,660.62,38.74Z"></path>
  <path class="cls-1" d="M703.14,40.52h24.22l-10.6,51.93a72.24,72.24,0,0,0-1.21,11c0,9.79,3,14.83,13,14.83,8.77,0,13.62-6.52,16.94-23.14l11.2-54.6h23.61l-11.2,54c-6,30.27-18.76,44.22-41.16,44.22-24.52,0-36.62-11-36.62-34.72,0-4.45,1.21-11.27,2.12-16.32Z"></path>
  <path class="cls-1" d="M823.76,40.52c19.67,0,34.8,6.82,34.8,25.52,0,17.95-10,28.78-23.76,34L849.48,137H824.06l-11.35-33.24H802.57L795.91,137H771.7l19.67-96.44ZM806.5,85h8.78c13,0,19.37-6.23,19.37-15.43,0-7.12-5.14-10.39-14.22-10.39h-8.78Z"></path>
  <path class="cls-1" d="M872,40.52h24.22l-10.6,51.93a72.24,72.24,0,0,0-1.21,11c0,9.79,3,14.83,13,14.83,8.77,0,13.62-6.52,16.95-23.14l11.2-54.6h23.6l-11.2,54c-6,30.27-18.76,44.22-41.16,44.22-24.51,0-36.62-11-36.62-34.72,0-4.45,1.21-11.27,2.12-16.32Z"></path>
</svg>
